<?xml version="1.0" standalone="no"?>
<!DOCTYPE svg PUBLIC "-//W3C//DTD SVG 20010904//EN"
 "http://www.w3.org/TR/2001/REC-SVG-20010904/DTD/svg10.dtd">
<svg version="1.0" xmlns="http://www.w3.org/2000/svg"
 width="2093.000000pt" height="2093.000000pt" viewBox="0 0 2093.000000 2093.000000"
 preserveAspectRatio="xMidYMid meet">
<metadata>
Created by potrace 1.14, written by Peter Selinger 2001-2017
</metadata>
<g transform="translate(0.000000,2093.000000) scale(0.100000,-0.100000)"
fill="#000000" stroke="none">
<path d="M11646 20683 c-1 -2 -76 -5 -167 -8 -90 -3 -186 -8 -214 -10 -203
-17 -259 -22 -330 -30 -27 -3 -68 -8 -90 -10 -22 -2 -40 -5 -40 -6 0 -1 -16
-3 -35 -4 -19 -2 -35 -4 -35 -5 0 -2 -27 -7 -80 -14 -16 -2 -46 -7 -65 -10
-19 -4 -51 -9 -70 -12 -79 -12 -127 -21 -160 -28 -30 -7 -77 -17 -105 -22 -11
-1 -30 -5 -42 -8 -56 -14 -69 -17 -88 -21 -11 -3 -31 -8 -45 -11 -14 -3 -34
-7 -45 -9 -11 -2 -22 -4 -25 -6 -3 -1 -9 -3 -15 -4 -5 -2 -12 -4 -15 -5 -3 -1
-12 -3 -20 -5 -35 -9 -61 -15 -82 -21 -13 -3 -31 -7 -40 -7 -10 -1 -18 -5 -18
-9 0 -4 -3 -7 -7 -6 -5 1 -28 -4 -53 -11 -25 -7 -52 -15 -60 -16 -8 -2 -15 -4
-15 -5 0 -1 -17 -6 -47 -13 -7 -1 -18 -6 -24 -9 -6 -4 -24 -10 -41 -12 -16 -3
-46 -13 -66 -21 -21 -8 -37 -12 -37 -9 0 4 -7 1 -15 -6 -8 -7 -15 -9 -15 -5 0
4 -6 2 -14 -4 -8 -6 -18 -10 -22 -9 -5 2 -22 -2 -39 -9 -61 -23 -70 -26 -75
-27 -3 -1 -11 -5 -17 -9 -7 -5 -17 -5 -23 -2 -5 3 -10 1 -10 -6 0 -7 -3 -9 -7
-6 -3 4 -12 2 -20 -4 -7 -6 -13 -8 -13 -4 0 4 -7 2 -15 -5 -8 -7 -15 -10 -15
-6 0 4 -13 0 -30 -9 -16 -9 -30 -13 -30 -9 0 4 -7 1 -15 -6 -8 -7 -15 -9 -15
-4 0 5 -4 3 -8 -3 -4 -7 -17 -14 -27 -16 -11 -2 -27 -6 -35 -10 -8 -3 -24 -8
-35 -13 -11 -4 -24 -8 -30 -10 -5 -1 -23 -8 -40 -15 -16 -7 -32 -13 -35 -14
-17 -6 -50 -19 -85 -33 -21 -10 -42 -17 -45 -18 -7 -1 -37 -13 -90 -37 -25
-11 -51 -20 -57 -20 -7 0 -13 -4 -13 -9 0 -4 -7 -8 -15 -8 -8 0 -23 -4 -33 -9
-20 -10 -63 -27 -77 -31 -5 -1 -19 -7 -30 -13 -11 -6 -23 -10 -27 -9 -5 1 -8
-2 -8 -7 0 -7 -10 -12 -60 -26 -3 -1 -54 -25 -115 -54 -60 -29 -139 -67 -175
-84 -36 -17 -86 -43 -112 -59 -27 -15 -48 -25 -48 -22 0 3 -7 -2 -16 -10 -8
-9 -20 -14 -25 -11 -5 4 -9 2 -9 -3 0 -6 -12 -15 -27 -21 -16 -6 -46 -21 -68
-34 -22 -13 -65 -37 -95 -53 -30 -16 -57 -32 -60 -35 -5 -6 -64 -38 -77 -41
-5 -2 -15 -8 -23 -15 -8 -7 -19 -14 -25 -15 -5 -1 -34 -19 -64 -40 -30 -21
-60 -38 -67 -38 -7 0 -14 -3 -16 -7 -4 -11 -85 -63 -96 -63 -5 0 -17 -9 -27
-20 -10 -11 -24 -20 -32 -20 -7 0 -13 -3 -13 -8 0 -4 -17 -16 -37 -27 -21 -11
-40 -22 -43 -25 -3 -3 -25 -19 -50 -35 -25 -16 -47 -33 -50 -36 -3 -3 -12 -9
-20 -12 -8 -4 -35 -22 -60 -41 -25 -19 -74 -55 -110 -79 -57 -40 -79 -56 -127
-97 -7 -5 -17 -10 -23 -10 -5 0 -10 -4 -10 -10 0 -5 -12 -16 -27 -24 -16 -8
-40 -26 -55 -39 -15 -13 -39 -32 -54 -43 -14 -10 -31 -24 -38 -29 -6 -6 -31
-26 -56 -45 -25 -19 -47 -37 -50 -40 -3 -3 -50 -41 -105 -84 -55 -44 -102 -82
-105 -85 -3 -3 -27 -24 -55 -46 -53 -43 -83 -68 -119 -100 -13 -11 -41 -35
-63 -53 -21 -18 -59 -51 -84 -73 -25 -22 -51 -38 -60 -36 -9 3 -65 -4 -125
-14 -60 -10 -125 -21 -144 -23 -49 -7 -133 -23 -215 -41 -38 -9 -90 -20 -115
-25 -25 -5 -72 -16 -105 -25 -33 -9 -67 -18 -75 -20 -48 -10 -471 -134 -520
-152 -8 -3 -82 -29 -165 -59 -186 -65 -232 -82 -270 -99 -16 -7 -52 -20 -80
-30 -27 -10 -63 -23 -80 -31 -109 -47 -373 -154 -382 -154 -6 0 -13 -3 -15 -8
-3 -7 -282 -122 -306 -126 -7 -1 -18 -8 -24 -14 -7 -7 -18 -12 -25 -12 -8 0
-33 -9 -55 -20 -23 -11 -45 -20 -49 -20 -3 0 -24 -8 -45 -17 -22 -10 -43 -18
-49 -18 -5 -1 -29 -11 -52 -23 -23 -12 -50 -23 -60 -25 -10 -2 -42 -15 -70
-30 -29 -15 -53 -24 -53 -21 0 4 -8 0 -17 -8 -10 -9 -29 -19 -43 -23 -26 -8
-525 -255 -595 -295 -22 -13 -65 -36 -95 -53 -323 -175 -528 -307 -623 -401
-94 -94 -142 -198 -149 -326 -2 -25 1 -112 5 -195 4 -82 10 -195 12 -250 6
-137 24 -382 30 -409 2 -11 6 -48 9 -81 2 -33 11 -107 20 -165 16 -106 50
-379 60 -480 6 -63 37 -300 61 -470 13 -94 87 -542 101 -615 12 -60 27 -143
30 -160 6 -42 67 -309 119 -525 31 -124 57 -234 59 -245 3 -11 16 -58 29 -105
14 -47 32 -114 41 -150 16 -62 52 -185 98 -330 11 -36 21 -72 23 -80 5 -23 60
-196 90 -285 15 -44 28 -87 30 -95 2 -8 13 -39 24 -69 11 -29 21 -63 23 -75 2
-11 5 -23 8 -26 3 -3 16 -39 30 -80 13 -41 48 -142 77 -225 30 -82 55 -157 58
-165 6 -22 83 -228 105 -280 10 -25 46 -115 78 -201 56 -145 75 -190 123 -297
10 -23 19 -47 19 -52 0 -5 13 -37 29 -72 43 -93 111 -247 111 -253 0 -4 36
-83 122 -265 27 -58 66 -141 86 -185 20 -44 69 -146 109 -227 40 -82 69 -148
65 -148 -4 0 -2 -4 3 -8 6 -4 48 -81 93 -172 140 -281 364 -714 463 -893 27
-48 49 -90 49 -94 0 -3 6 -14 14 -22 7 -9 33 -52 56 -96 24 -44 51 -92 61
-107 11 -14 19 -29 19 -32 0 -3 30 -56 66 -118 67 -113 99 -167 226 -375 37
-62 68 -117 68 -123 0 -5 3 -10 8 -10 4 0 21 -23 37 -50 40 -67 146 -232 261
-407 52 -79 94 -147 94 -152 0 -5 4 -11 8 -13 12 -4 72 -95 72 -107 0 -6 4
-11 8 -11 4 0 16 -15 27 -32 10 -18 22 -35 26 -38 12 -8 79 -109 79 -119 0 -5
3 -11 8 -13 4 -1 41 -50 82 -108 98 -138 216 -301 232 -320 33 -38 98 -131 98
-140 0 -6 4 -10 9 -10 5 0 32 -30 59 -67 75 -101 204 -268 235 -303 7 -8 70
-85 139 -170 107 -133 274 -335 379 -460 16 -19 40 -46 53 -60 13 -14 50 -57
82 -95 128 -154 382 -443 407 -464 10 -7 17 -16 17 -20 0 -4 27 -36 61 -71 33
-36 99 -110 147 -165 48 -55 92 -103 99 -108 7 -4 42 -42 79 -85 389 -448
1291 -1349 1730 -1727 38 -33 71 -62 74 -65 3 -3 40 -34 83 -70 42 -35 77 -68
77 -72 0 -4 4 -8 10 -8 8 0 179 -131 253 -195 15 -13 32 -25 36 -27 5 -2 23
-16 42 -31 157 -128 721 -519 769 -532 3 -1 45 -21 94 -44 124 -59 198 -75
331 -73 119 1 157 4 165 12 3 3 30 14 60 24 63 22 305 140 367 179 24 15 45
27 47 27 3 0 29 14 58 31 29 18 73 43 98 57 25 14 66 40 92 59 26 18 51 33 54
33 9 0 308 205 399 273 44 34 119 93 166 133 47 39 133 106 190 148 135 100
221 164 268 201 21 17 94 73 161 125 173 134 326 261 560 464 69 60 136 118
150 130 27 24 118 108 335 310 369 343 829 820 1189 1230 48 56 102 117 120
136 17 19 51 59 74 88 l44 52 -31 6 c-37 8 -32 23 6 19 16 -2 60 -6 98 -9 39
-4 90 -9 115 -12 66 -8 189 -15 265 -15 25 0 51 0 58 0 6 0 41 2 77 5 36 3 93
8 128 10 35 3 71 7 80 10 9 3 37 8 62 11 24 4 53 11 63 17 10 5 21 7 24 4 3
-3 14 -1 24 4 9 6 34 12 54 16 20 3 51 12 70 20 19 8 35 12 35 9 0 -3 13 1 29
10 17 8 38 16 48 18 10 2 34 10 53 19 101 44 136 60 150 69 8 5 22 12 30 16 8
3 34 19 57 35 23 15 44 28 47 28 3 0 24 18 48 40 24 22 46 40 49 40 8 0 156
149 187 187 19 24 59 79 157 220 9 13 16 26 16 30 0 5 6 15 13 23 12 16 44 73
86 155 25 49 26 50 75 51 83 3 141 12 194 33 28 10 51 17 51 15 0 -3 20 9 45
26 25 17 45 29 45 26 0 -7 78 71 107 107 13 15 23 30 23 35 0 4 5 14 12 23 7
8 14 21 16 27 2 14 31 73 88 182 51 99 103 214 114 252 1 4 10 31 21 60 11 29
21 58 22 63 2 6 6 16 10 23 5 6 6 12 3 12 -3 0 -1 11 4 25 5 14 12 36 14 48 3
12 7 33 10 47 3 13 8 42 11 65 3 22 9 48 12 59 6 22 5 197 -1 241 -5 27 -39
151 -51 183 -2 7 -4 13 -4 15 0 1 -11 25 -25 53 -14 29 -26 57 -26 63 0 6 -3
11 -8 11 -4 0 -13 14 -21 32 -67 150 -288 399 -451 508 -12 8 -33 23 -45 33
-13 9 -28 17 -33 17 -5 0 -15 6 -21 14 -9 11 -9 16 2 23 15 9 43 55 108 178
23 44 47 87 55 95 7 8 13 18 14 22 2 19 14 44 28 61 8 9 13 17 9 17 -3 0 17
42 45 93 54 99 247 487 312 627 22 47 44 88 50 92 6 4 8 8 4 8 -4 0 6 27 23
59 16 33 29 62 29 65 0 3 18 44 41 93 68 146 149 331 149 340 0 5 5 14 12 21
6 6 13 17 14 24 1 7 10 31 20 53 10 22 18 42 19 45 1 3 7 16 12 30 84 194 243
591 243 605 0 8 6 20 13 27 6 7 13 21 15 31 2 10 16 51 31 90 33 85 41 106 39
110 -1 1 4 13 11 25 7 13 28 67 46 120 37 106 82 228 92 252 3 8 7 21 9 29 1
7 11 36 22 65 11 28 43 125 73 216 29 91 56 169 61 175 4 5 8 16 8 25 0 8 19
71 41 140 22 69 42 132 44 140 2 8 23 78 46 155 23 77 45 154 50 170 25 94 43
159 66 235 14 47 29 104 34 128 5 24 11 47 13 51 6 9 108 411 137 538 11 48
22 97 24 108 3 11 11 48 17 83 7 34 16 62 21 62 4 0 6 4 3 9 -5 8 28 181 41
211 3 8 5 19 4 23 -1 5 10 64 23 130 61 298 172 945 177 1027 0 8 8 62 16 120
15 103 59 477 68 575 2 28 9 111 15 185 6 74 14 155 17 180 4 25 6 48 5 51 0
3 4 73 9 155 10 153 28 649 28 764 0 98 -15 185 -40 238 -21 43 -123 155 -145
159 -5 1 -52 27 -104 58 -110 66 -687 358 -730 370 -3 0 -63 29 -133 63 -71
34 -131 62 -133 62 -2 0 -59 26 -127 59 -67 32 -132 61 -145 65 -12 4 -61 27
-109 50 -49 24 -99 47 -113 51 -14 4 -33 14 -42 23 -10 8 -18 12 -18 9 0 -3
-22 5 -49 18 -27 14 -53 25 -57 25 -4 0 -44 16 -89 36 -44 20 -99 45 -123 55
-23 10 -49 19 -57 19 -8 0 -15 4 -15 8 0 4 -21 14 -47 21 -27 8 -52 17 -58 21
-5 4 -37 17 -70 30 -33 12 -94 35 -135 50 -198 74 -246 91 -260 95 -8 2 -35
10 -60 19 -25 9 -52 18 -60 20 -8 2 -62 20 -120 40 -58 20 -112 38 -120 40 -8
2 -62 18 -120 34 -133 38 -407 107 -485 122 -50 10 -65 17 -83 43 -12 18 -33
46 -48 62 -14 17 -40 47 -57 68 -18 22 -39 47 -47 57 -8 9 -31 36 -50 59 -37
45 -52 61 -200 221 -147 159 -305 311 -352 341 -14 9 3 17 27 12 11 -2 34 -6
50 -9 55 -8 70 -11 70 -13 0 -2 16 -4 35 -6 32 -4 68 -11 80 -15 3 -1 10 -3
15 -5 6 -1 13 -3 18 -5 4 -1 16 -4 27 -5 11 -1 21 -3 23 -5 1 -1 16 -4 32 -6
17 -3 37 -7 45 -11 16 -6 29 -10 58 -17 9 -3 18 -5 20 -6 1 -2 7 -4 12 -5 6
-1 12 -4 15 -5 7 -4 15 -5 58 -14 20 -5 37 -12 37 -17 0 -5 3 -8 8 -7 13 3 67
-15 90 -30 12 -8 22 -11 22 -8 0 4 15 -1 33 -11 17 -9 35 -18 40 -19 4 -1 10
-3 15 -4 4 -1 10 -2 15 -1 4 0 7 -4 7 -10 0 -5 4 -8 9 -4 5 3 16 -2 25 -10 8
-9 18 -15 21 -15 11 2 120 -53 127 -64 4 -6 8 -7 8 -3 0 5 14 -1 30 -13 17
-12 30 -16 30 -10 0 6 5 8 10 5 38 -23 -43 60 -160 165 -40 36 -85 76 -100 90
-15 14 -42 37 -61 52 -19 14 -45 36 -58 47 -13 12 -27 21 -30 21 -3 0 -21 14
-40 30 -18 17 -37 30 -40 30 -4 0 -16 8 -27 19 -19 17 -36 29 -139 97 -22 15
-41 31 -43 36 -2 4 -9 8 -16 8 -7 0 -21 8 -32 18 -10 9 -36 26 -58 37 -21 11
-40 26 -43 32 -3 7 -9 11 -13 8 -5 -3 -13 3 -19 12 -6 10 -11 14 -11 9 0 -5
-7 -3 -15 4 -8 7 -28 20 -43 29 -15 9 -54 32 -86 51 -135 82 -152 91 -168 97
-10 3 -18 8 -18 12 0 4 -16 13 -35 21 -19 8 -35 18 -35 22 0 5 -4 7 -9 4 -5
-3 -14 0 -19 7 -6 7 -27 19 -47 27 -19 7 -35 18 -35 22 0 5 -4 7 -9 3 -5 -3
-17 2 -25 11 -9 8 -16 13 -16 9 0 -3 -12 2 -27 13 -16 11 -50 30 -78 42 -107
47 -120 54 -127 64 -4 6 -8 8 -8 4 0 -4 -21 4 -47 17 -27 13 -51 24 -55 24 -5
1 -24 10 -43 21 -20 11 -42 20 -50 20 -8 0 -15 5 -15 10 0 6 -9 10 -20 10 -11
0 -20 4 -20 10 0 5 -7 7 -15 4 -8 -4 -15 -1 -15 6 0 6 -4 9 -9 5 -5 -3 -12 -1
-16 5 -3 5 -15 10 -26 10 -10 0 -19 5 -19 12 0 6 -3 9 -6 6 -3 -4 -29 4 -57
16 -75 33 -90 39 -107 42 -8 2 -23 7 -35 13 -33 15 -59 24 -67 23 -5 -1 -8 3
-8 9 0 5 -4 8 -8 5 -5 -3 -22 2 -38 10 -16 9 -30 15 -32 14 -1 -1 -35 9 -75
21 -39 13 -75 22 -79 21 -5 -1 -8 3 -8 9 0 5 -5 7 -10 4 -6 -4 -16 -2 -23 3
-7 5 -25 12 -42 16 -69 15 -79 17 -97 27 -10 5 -18 7 -18 3 0 -3 -6 -1 -13 5
-8 6 -17 8 -20 5 -3 -3 -12 -2 -19 2 -7 4 -19 9 -28 10 -16 3 -51 11 -60 14
-3 1 -9 3 -15 5 -5 1 -12 3 -15 4 -3 2 -14 4 -25 6 -11 2 -31 6 -45 9 -14 3
-38 9 -55 13 -16 3 -37 8 -45 9 -8 2 -26 5 -40 8 -69 14 -87 17 -107 18 -13 1
-23 4 -23 8 0 3 -10 6 -22 6 -47 3 -83 8 -93 13 -5 3 -23 6 -40 7 -44 3 -127
13 -150 18 -11 3 -24 5 -28 5 -5 1 -6 5 -3 10 4 5 23 8 44 7 20 -2 42 0 47 3
6 3 26 7 45 8 19 2 55 5 80 8 112 14 372 27 525 28 112 0 134 5 135 30 0 4 -3
6 -7 6 -5 -1 -11 0 -15 1 -5 1 -12 4 -18 5 -5 1 -11 3 -12 5 -2 1 -19 3 -38 5
-33 3 -75 12 -75 15 0 1 -11 3 -25 5 -27 4 -60 10 -100 20 -14 3 -34 8 -45 10
-11 2 -31 6 -45 10 -14 4 -32 7 -40 7 -8 0 -22 2 -30 5 -8 4 -23 7 -32 8 -10
2 -19 3 -20 5 -2 1 -14 3 -28 5 -14 2 -41 6 -60 10 -19 4 -46 8 -60 10 -14 2
-25 4 -25 5 0 1 -18 3 -40 5 -22 2 -58 6 -80 9 -22 4 -71 8 -110 11 -38 2
-101 7 -140 10 -157 12 -930 27 -939 18z"/>
</g>
</svg>
